<svg width="130" height="25" viewBox="0 0 130 25" fill="none" xmlns="http://www.w3.org/2000/svg">
<path d="M40.9 19.1162C40.7667 19.1162 40.6467 19.0695 40.54 18.9762C40.4467 18.8695 40.4 18.7495 40.4 18.6162V5.61621C40.4 5.46954 40.4467 5.34954 40.54 5.25621C40.6467 5.16288 40.7667 5.11621 40.9 5.11621H46.5C48.2067 5.11621 49.5467 5.50954 50.52 6.29621C51.5067 7.08288 52 8.22954 52 9.73621C52 11.2295 51.5133 12.3562 50.54 13.1162C49.5667 13.8629 48.22 14.2362 46.5 14.2362H44.12V18.6162C44.12 18.7629 44.0667 18.8829 43.96 18.9762C43.8667 19.0695 43.7467 19.1162 43.6 19.1162H40.9ZM46.4 11.4762C46.9867 11.4762 47.4467 11.3295 47.78 11.0362C48.1133 10.7295 48.28 10.2829 48.28 9.69621C48.28 9.14954 48.12 8.71621 47.8 8.39621C47.4933 8.06288 47.0267 7.89621 46.4 7.89621H44.06V11.4762H46.4ZM59.7956 19.3162C57.9156 19.3162 56.4423 18.8562 55.3756 17.9362C54.3223 17.0162 53.7956 15.6295 53.7956 13.7762V5.61621C53.7956 5.46954 53.8423 5.34954 53.9356 5.25621C54.0423 5.16288 54.1623 5.11621 54.2956 5.11621H56.8756C57.0223 5.11621 57.1423 5.16288 57.2356 5.25621C57.3423 5.34954 57.3956 5.46954 57.3956 5.61621V13.7562C57.3956 14.6229 57.5956 15.2762 57.9956 15.7162C58.409 16.1429 59.0023 16.3562 59.7756 16.3562C60.5356 16.3562 61.1223 16.1362 61.5356 15.6962C61.949 15.2562 62.1556 14.6095 62.1556 13.7562V5.61621C62.1556 5.46954 62.2023 5.34954 62.2956 5.25621C62.4023 5.16288 62.5223 5.11621 62.6556 5.11621H65.2556C65.4023 5.11621 65.5223 5.16288 65.6156 5.25621C65.709 5.34954 65.7556 5.46954 65.7556 5.61621V13.7762C65.7556 15.6295 65.2223 17.0162 64.1556 17.9362C63.1023 18.8562 61.649 19.3162 59.7956 19.3162ZM68.9078 19.1162C68.7745 19.1162 68.6545 19.0695 68.5478 18.9762C68.4545 18.8695 68.4078 18.7495 68.4078 18.6162V5.61621C68.4078 5.46954 68.4545 5.34954 68.5478 5.25621C68.6545 5.16288 68.7745 5.11621 68.9078 5.11621H71.5878C71.7345 5.11621 71.8545 5.16288 71.9478 5.25621C72.0545 5.34954 72.1078 5.46954 72.1078 5.61621V18.6162C72.1078 18.7629 72.0545 18.8829 71.9478 18.9762C71.8545 19.0695 71.7345 19.1162 71.5878 19.1162H68.9078ZM80.1122 19.3162C78.8455 19.3162 77.7589 19.1295 76.8522 18.7562C75.9455 18.3829 75.2589 17.8962 74.7922 17.2962C74.3389 16.6829 74.0989 16.0162 74.0722 15.2962C74.0722 15.1895 74.1122 15.0962 74.1922 15.0162C74.2855 14.9229 74.3922 14.8762 74.5122 14.8762H77.0322C77.1922 14.8762 77.3189 14.9095 77.4122 14.9762C77.5189 15.0295 77.6255 15.1162 77.7322 15.2362C77.9055 15.5829 78.1855 15.8695 78.5722 16.0962C78.9589 16.3229 79.4722 16.4362 80.1122 16.4362C80.8722 16.4362 81.4522 16.3162 81.8522 16.0762C82.2522 15.8362 82.4522 15.5095 82.4522 15.0962C82.4522 14.8029 82.3455 14.5629 82.1322 14.3762C81.9322 14.1895 81.6122 14.0229 81.1722 13.8762C80.7322 13.7295 80.0789 13.5629 79.2122 13.3762C77.6122 13.0429 76.4122 12.5562 75.6122 11.9162C74.8255 11.2629 74.4322 10.3362 74.4322 9.13621C74.4322 8.32288 74.6589 7.59621 75.1122 6.95621C75.5655 6.31621 76.2122 5.81621 77.0522 5.45621C77.8922 5.09621 78.8722 4.91621 79.9922 4.91621C81.1522 4.91621 82.1589 5.11621 83.0122 5.51621C83.8655 5.91621 84.5122 6.42288 84.9522 7.03621C85.4055 7.63621 85.6455 8.22954 85.6722 8.81621C85.6722 8.93621 85.6322 9.03621 85.5522 9.11621C85.4722 9.19621 85.3722 9.23621 85.2522 9.23621H82.6122C82.4522 9.23621 82.3189 9.20954 82.2122 9.15621C82.1189 9.10288 82.0322 9.01621 81.9522 8.89621C81.8722 8.58954 81.6522 8.32954 81.2922 8.11621C80.9455 7.90288 80.5122 7.79621 79.9922 7.79621C79.3922 7.79621 78.9322 7.90288 78.6122 8.11621C78.2922 8.32954 78.1322 8.64288 78.1322 9.05621C78.1322 9.33621 78.2189 9.56954 78.3922 9.75621C78.5789 9.94288 78.8722 10.1162 79.2722 10.2762C79.6855 10.4229 80.2722 10.5762 81.0322 10.7362C82.2722 10.9629 83.2589 11.2495 83.9922 11.5962C84.7389 11.9295 85.2855 12.3695 85.6322 12.9162C85.9789 13.4495 86.1522 14.1229 86.1522 14.9362C86.1522 15.8295 85.8922 16.6095 85.3722 17.2762C84.8655 17.9295 84.1522 18.4362 83.2322 18.7962C82.3255 19.1429 81.2855 19.3162 80.1122 19.3162ZM88.6539 19.1162C88.5072 19.1162 88.3872 19.0695 88.2939 18.9762C88.2006 18.8829 88.1539 18.7629 88.1539 18.6162V5.61621C88.1539 5.46954 88.2006 5.34954 88.2939 5.25621C88.4006 5.16288 88.5206 5.11621 88.6539 5.11621H91.2339C91.3806 5.11621 91.5006 5.16288 91.5939 5.25621C91.7006 5.34954 91.7539 5.46954 91.7539 5.61621V10.4362H96.6739V5.61621C96.6739 5.46954 96.7206 5.34954 96.8139 5.25621C96.9072 5.16288 97.0272 5.11621 97.1739 5.11621H99.7539C99.9006 5.11621 100.021 5.16288 100.114 5.25621C100.207 5.34954 100.254 5.46954 100.254 5.61621V18.6162C100.254 18.7629 100.207 18.8829 100.114 18.9762C100.021 19.0695 99.9006 19.1162 99.7539 19.1162H97.1739C97.0272 19.1162 96.9072 19.0695 96.8139 18.9762C96.7206 18.8829 96.6739 18.7629 96.6739 18.6162V13.6362H91.7539V18.6162C91.7539 18.7629 91.7006 18.8829 91.5939 18.9762C91.5006 19.0695 91.3806 19.1162 91.2339 19.1162H88.6539ZM108.776 19.3162C106.896 19.3162 105.416 18.8562 104.336 17.9362C103.256 17.0162 102.683 15.6629 102.616 13.8762C102.603 13.4895 102.596 12.9162 102.596 12.1562C102.596 11.3829 102.603 10.8029 102.616 10.4162C102.683 8.65621 103.263 7.30288 104.356 6.35621C105.463 5.39621 106.936 4.91621 108.776 4.91621C110.616 4.91621 112.09 5.39621 113.196 6.35621C114.303 7.30288 114.883 8.65621 114.936 10.4162C114.963 11.1895 114.976 11.7695 114.976 12.1562C114.976 12.5295 114.963 13.1029 114.936 13.8762C114.87 15.6629 114.296 17.0162 113.216 17.9362C112.136 18.8562 110.656 19.3162 108.776 19.3162ZM108.776 16.4362C109.51 16.4362 110.09 16.2162 110.516 15.7762C110.956 15.3362 111.19 14.6629 111.216 13.7562C111.243 12.9829 111.256 12.4362 111.256 12.1162C111.256 11.7695 111.243 11.2229 111.216 10.4762C111.19 9.56954 110.956 8.89621 110.516 8.45621C110.076 8.01621 109.496 7.79621 108.776 7.79621C108.056 7.79621 107.476 8.01621 107.036 8.45621C106.61 8.89621 106.376 9.56954 106.336 10.4762C106.323 10.8495 106.316 11.3962 106.316 12.1162C106.316 12.8229 106.323 13.3695 106.336 13.7562C106.376 14.6629 106.61 15.3362 107.036 15.7762C107.463 16.2162 108.043 16.4362 108.776 16.4362ZM117.795 19.1162C117.661 19.1162 117.541 19.0695 117.435 18.9762C117.341 18.8695 117.295 18.7495 117.295 18.6162V5.61621C117.295 5.46954 117.341 5.34954 117.435 5.25621C117.541 5.16288 117.661 5.11621 117.795 5.11621H123.395C125.101 5.11621 126.441 5.50954 127.415 6.29621C128.401 7.08288 128.895 8.22954 128.895 9.73621C128.895 11.2295 128.408 12.3562 127.435 13.1162C126.461 13.8629 125.115 14.2362 123.395 14.2362H121.015V18.6162C121.015 18.7629 120.961 18.8829 120.855 18.9762C120.761 19.0695 120.641 19.1162 120.495 19.1162H117.795ZM123.295 11.4762C123.881 11.4762 124.341 11.3295 124.675 11.0362C125.008 10.7295 125.175 10.2829 125.175 9.69621C125.175 9.14954 125.015 8.71621 124.695 8.39621C124.388 8.06288 123.921 7.89621 123.295 7.89621H120.955V11.4762H123.295Z" fill="white"/>
<path d="M0 2.475V12.865L3 14.598V7.67L9 11.135L15 7.67V11.135L9 14.598V18.062L15 21.525L24 16.33V9.402L21 11.135V14.598L15 18.062L12 16.33L18 12.865V2.475L9 7.67L0 2.475ZM24 2.475L21 4.205V7.67L24 5.938V2.474V2.475Z" fill="#4256D0"/>
</svg>
