<svg width="55" height="56" viewBox="0 0 55 56" fill="none" xmlns="http://www.w3.org/2000/svg">
<rect y="0.0493164" width="55" height="55" rx="27.5" fill="#4256D0" fill-opacity="0.1"/>
<path fill-rule="evenodd" clip-rule="evenodd" d="M27.5001 26.3493C28.4549 26.3493 29.3706 25.97 30.0457 25.2949C30.7208 24.6197 31.1001 23.7041 31.1001 22.7493C31.1001 21.7945 30.7208 20.8788 30.0457 20.2037C29.3706 19.5286 28.4549 19.1493 27.5001 19.1493C26.5453 19.1493 25.6296 19.5286 24.9545 20.2037C24.2794 20.8788 23.9001 21.7945 23.9001 22.7493C23.9001 23.7041 24.2794 24.6197 24.9545 25.2949C25.6296 25.97 26.5453 26.3493 27.5001 26.3493ZM22.3988 37.1493C20.577 37.1493 19.0423 35.6179 19.7395 33.9347C20.1616 32.9156 20.7804 31.9896 21.5604 31.2096C22.3404 30.4296 23.2664 29.8108 24.2856 29.3887C25.3047 28.9666 26.397 28.7493 27.5001 28.7493C28.6032 28.7493 29.6955 28.9666 30.7146 29.3887C31.7338 29.8108 32.6598 30.4296 33.4398 31.2096C34.2198 31.9896 34.8385 32.9156 35.2607 33.9347C35.9579 35.6179 34.4232 37.1493 32.6014 37.1493H22.3988Z" fill="#4256D0"/>
</svg>
